#usda 1.0
(
    defaultPrim = "MetalTubeAsset"
    metersPerUnit = 1
    upAxis = "Y"
)

def Xform "MetalTubeAsset" (
    kind = "component"
    assetInfo = {
        string name = "MetalTubeConfigurable"
    }
)
{
    def Scope "Looks"
    {
        def Material "MetalMaterial"
        {
            token outputs:surface.connect = </MetalTubeAsset/Looks/MetalMaterial/PBR.outputs:surface>

            def Shader "PBR"
            {
                uniform token info:id = "UsdPreviewSurface"
                color3f inputs:diffuseColor = (0.02, 0.02, 0.02)
                color3f inputs:specularColor = (0.9, 0.9, 0.9)
                color3f inputs:emissiveColor = (0, 0, 0)
                float inputs:metallic = 1.0000
                float inputs:roughness = 0.1200
                float inputs:ior = 1.5000
                float inputs:clearcoat = 0
                float inputs:clearcoatRoughness = 0.01
                normal3f outputs:surface
            }
        }
    }

    def Mesh "Tube"
    {
        rel material:binding = </MetalTubeAsset/Looks/MetalMaterial>
        point3f[] points = [
            (0.900000, -0.500000, 0.000000),
            (0.900000, 0.500000, 0.000000),
            (0.890000, -0.500000, 0.000000),
            (0.890000, 0.500000, 0.000000),
            (0.895666, -0.500000, 0.088215),
            (0.895666, 0.500000, 0.088215),
            (0.885714, -0.500000, 0.087235),
            (0.885714, 0.500000, 0.087235),
            (0.882707, -0.500000, 0.175581),
            (0.882707, 0.500000, 0.175581),
            (0.872899, -0.500000, 0.173630),
            (0.872899, 0.500000, 0.173630),
            (0.861246, -0.500000, 0.261256),
            (0.861246, 0.500000, 0.261256),
            (0.851677, -0.500000, 0.258353),
            (0.851677, 0.500000, 0.258353),
            (0.831492, -0.500000, 0.344415),
            (0.831492, 0.500000, 0.344415),
            (0.822253, -0.500000, 0.340588),
            (0.822253, 0.500000, 0.340588),
            (0.793729, -0.500000, 0.424257),
            (0.793729, 0.500000, 0.424257),
            (0.784910, -0.500000, 0.419543),
            (0.784910, 0.500000, 0.419543),
            (0.748323, -0.500000, 0.500013),
            (0.748323, 0.500000, 0.500013),
            (0.740008, -0.500000, 0.494458),
            (0.740008, 0.500000, 0.494458),
            (0.695709, -0.500000, 0.570954),
            (0.695709, 0.500000, 0.570954),
            (0.687979, -0.500000, 0.564610),
            (0.687979, 0.500000, 0.564610),
            (0.636396, -0.500000, 0.636396),
            (0.636396, 0.500000, 0.636396),
            (0.629325, -0.500000, 0.629325),
            (0.629325, 0.500000, 0.629325),
            (0.570954, -0.500000, 0.695709),
            (0.570954, 0.500000, 0.695709),
            (0.564610, -0.500000, 0.687979),
            (0.564610, 0.500000, 0.687979),
            (0.500013, -0.500000, 0.748323),
            (0.500013, 0.500000, 0.748323),
            (0.494458, -0.500000, 0.740008),
            (0.494458, 0.500000, 0.740008),
            (0.424257, -0.500000, 0.793729),
            (0.424257, 0.500000, 0.793729),
            (0.419543, -0.500000, 0.784910),
            (0.419543, 0.500000, 0.784910),
            (0.344415, -0.500000, 0.831492),
            (0.344415, 0.500000, 0.831492),
            (0.340588, -0.500000, 0.822253),
            (0.340588, 0.500000, 0.822253),
            (0.261256, -0.500000, 0.861246),
            (0.261256, 0.500000, 0.861246),
            (0.258353, -0.500000, 0.851677),
            (0.258353, 0.500000, 0.851677),
            (0.175581, -0.500000, 0.882707),
            (0.175581, 0.500000, 0.882707),
            (0.173630, -0.500000, 0.872899),
            (0.173630, 0.500000, 0.872899),
            (0.088215, -0.500000, 0.895666),
            (0.088215, 0.500000, 0.895666),
            (0.087235, -0.500000, 0.885714),
            (0.087235, 0.500000, 0.885714),
            (0.000000, -0.500000, 0.900000),
            (0.000000, 0.500000, 0.900000),
            (0.000000, -0.500000, 0.890000),
            (0.000000, 0.500000, 0.890000),
            (-0.088215, -0.500000, 0.895666),
            (-0.088215, 0.500000, 0.895666),
            (-0.087235, -0.500000, 0.885714),
            (-0.087235, 0.500000, 0.885714),
            (-0.175581, -0.500000, 0.882707),
            (-0.175581, 0.500000, 0.882707),
            (-0.173630, -0.500000, 0.872899),
            (-0.173630, 0.500000, 0.872899),
            (-0.261256, -0.500000, 0.861246),
            (-0.261256, 0.500000, 0.861246),
            (-0.258353, -0.500000, 0.851677),
            (-0.258353, 0.500000, 0.851677),
            (-0.344415, -0.500000, 0.831492),
            (-0.344415, 0.500000, 0.831492),
            (-0.340588, -0.500000, 0.822253),
            (-0.340588, 0.500000, 0.822253),
            (-0.424257, -0.500000, 0.793729),
            (-0.424257, 0.500000, 0.793729),
            (-0.419543, -0.500000, 0.784910),
            (-0.419543, 0.500000, 0.784910),
            (-0.500013, -0.500000, 0.748323),
            (-0.500013, 0.500000, 0.748323),
            (-0.494458, -0.500000, 0.740008),
            (-0.494458, 0.500000, 0.740008),
            (-0.570954, -0.500000, 0.695709),
            (-0.570954, 0.500000, 0.695709),
            (-0.564610, -0.500000, 0.687979),
            (-0.564610, 0.500000, 0.687979),
            (-0.636396, -0.500000, 0.636396),
            (-0.636396, 0.500000, 0.636396),
            (-0.629325, -0.500000, 0.629325),
            (-0.629325, 0.500000, 0.629325),
            (-0.695709, -0.500000, 0.570954),
            (-0.695709, 0.500000, 0.570954),
            (-0.687979, -0.500000, 0.564610),
            (-0.687979, 0.500000, 0.564610),
            (-0.748323, -0.500000, 0.500013),
            (-0.748323, 0.500000, 0.500013),
            (-0.740008, -0.500000, 0.494458),
            (-0.740008, 0.500000, 0.494458),
            (-0.793729, -0.500000, 0.424257),
            (-0.793729, 0.500000, 0.424257),
            (-0.784910, -0.500000, 0.419543),
            (-0.784910, 0.500000, 0.419543),
            (-0.831492, -0.500000, 0.344415),
            (-0.831492, 0.500000, 0.344415),
            (-0.822253, -0.500000, 0.340588),
            (-0.822253, 0.500000, 0.340588),
            (-0.861246, -0.500000, 0.261256),
            (-0.861246, 0.500000, 0.261256),
            (-0.851677, -0.500000, 0.258353),
            (-0.851677, 0.500000, 0.258353),
            (-0.882707, -0.500000, 0.175581),
            (-0.882707, 0.500000, 0.175581),
            (-0.872899, -0.500000, 0.173630),
            (-0.872899, 0.500000, 0.173630),
            (-0.895666, -0.500000, 0.088215),
            (-0.895666, 0.500000, 0.088215),
            (-0.885714, -0.500000, 0.087235),
            (-0.885714, 0.500000, 0.087235),
            (-0.900000, -0.500000, 0.000000),
            (-0.900000, 0.500000, 0.000000),
            (-0.890000, -0.500000, 0.000000),
            (-0.890000, 0.500000, 0.000000),
            (-0.895666, -0.500000, -0.088215),
            (-0.895666, 0.500000, -0.088215),
            (-0.885714, -0.500000, -0.087235),
            (-0.885714, 0.500000, -0.087235),
            (-0.882707, -0.500000, -0.175581),
            (-0.882707, 0.500000, -0.175581),
            (-0.872899, -0.500000, -0.173630),
            (-0.872899, 0.500000, -0.173630),
            (-0.861246, -0.500000, -0.261256),
            (-0.861246, 0.500000, -0.261256),
            (-0.851677, -0.500000, -0.258353),
            (-0.851677, 0.500000, -0.258353),
            (-0.831492, -0.500000, -0.344415),
            (-0.831492, 0.500000, -0.344415),
            (-0.822253, -0.500000, -0.340588),
            (-0.822253, 0.500000, -0.340588),
            (-0.793729, -0.500000, -0.424257),
            (-0.793729, 0.500000, -0.424257),
            (-0.784910, -0.500000, -0.419543),
            (-0.784910, 0.500000, -0.419543),
            (-0.748323, -0.500000, -0.500013),
            (-0.748323, 0.500000, -0.500013),
            (-0.740008, -0.500000, -0.494458),
            (-0.740008, 0.500000, -0.494458),
            (-0.695709, -0.500000, -0.570954),
            (-0.695709, 0.500000, -0.570954),
            (-0.687979, -0.500000, -0.564610),
            (-0.687979, 0.500000, -0.564610),
            (-0.636396, -0.500000, -0.636396),
            (-0.636396, 0.500000, -0.636396),
            (-0.629325, -0.500000, -0.629325),
            (-0.629325, 0.500000, -0.629325),
            (-0.570954, -0.500000, -0.695709),
            (-0.570954, 0.500000, -0.695709),
            (-0.564610, -0.500000, -0.687979),
            (-0.564610, 0.500000, -0.687979),
            (-0.500013, -0.500000, -0.748323),
            (-0.500013, 0.500000, -0.748323),
            (-0.494458, -0.500000, -0.740008),
            (-0.494458, 0.500000, -0.740008),
            (-0.424257, -0.500000, -0.793729),
            (-0.424257, 0.500000, -0.793729),
            (-0.419543, -0.500000, -0.784910),
            (-0.419543, 0.500000, -0.784910),
            (-0.344415, -0.500000, -0.831492),
            (-0.344415, 0.500000, -0.831492),
            (-0.340588, -0.500000, -0.822253),
            (-0.340588, 0.500000, -0.822253),
            (-0.261256, -0.500000, -0.861246),
            (-0.261256, 0.500000, -0.861246),
            (-0.258353, -0.500000, -0.851677),
            (-0.258353, 0.500000, -0.851677),
            (-0.175581, -0.500000, -0.882707),
            (-0.175581, 0.500000, -0.882707),
            (-0.173630, -0.500000, -0.872899),
            (-0.173630, 0.500000, -0.872899),
            (-0.088215, -0.500000, -0.895666),
            (-0.088215, 0.500000, -0.895666),
            (-0.087235, -0.500000, -0.885714),
            (-0.087235, 0.500000, -0.885714),
            (-0.000000, -0.500000, -0.900000),
            (-0.000000, 0.500000, -0.900000),
            (-0.000000, -0.500000, -0.890000),
            (-0.000000, 0.500000, -0.890000),
            (0.088215, -0.500000, -0.895666),
            (0.088215, 0.500000, -0.895666),
            (0.087235, -0.500000, -0.885714),
            (0.087235, 0.500000, -0.885714),
            (0.175581, -0.500000, -0.882707),
            (0.175581, 0.500000, -0.882707),
            (0.173630, -0.500000, -0.872899),
            (0.173630, 0.500000, -0.872899),
            (0.261256, -0.500000, -0.861246),
            (0.261256, 0.500000, -0.861246),
            (0.258353, -0.500000, -0.851677),
            (0.258353, 0.500000, -0.851677),
            (0.344415, -0.500000, -0.831492),
            (0.344415, 0.500000, -0.831492),
            (0.340588, -0.500000, -0.822253),
            (0.340588, 0.500000, -0.822253),
            (0.424257, -0.500000, -0.793729),
            (0.424257, 0.500000, -0.793729),
            (0.419543, -0.500000, -0.784910),
            (0.419543, 0.500000, -0.784910),
            (0.500013, -0.500000, -0.748323),
            (0.500013, 0.500000, -0.748323),
            (0.494458, -0.500000, -0.740008),
            (0.494458, 0.500000, -0.740008),
            (0.570954, -0.500000, -0.695709),
            (0.570954, 0.500000, -0.695709),
            (0.564610, -0.500000, -0.687979),
            (0.564610, 0.500000, -0.687979),
            (0.636396, -0.500000, -0.636396),
            (0.636396, 0.500000, -0.636396),
            (0.629325, -0.500000, -0.629325),
            (0.629325, 0.500000, -0.629325),
            (0.695709, -0.500000, -0.570954),
            (0.695709, 0.500000, -0.570954),
            (0.687979, -0.500000, -0.564610),
            (0.687979, 0.500000, -0.564610),
            (0.748323, -0.500000, -0.500013),
            (0.748323, 0.500000, -0.500013),
            (0.740008, -0.500000, -0.494458),
            (0.740008, 0.500000, -0.494458),
            (0.793729, -0.500000, -0.424257),
            (0.793729, 0.500000, -0.424257),
            (0.784910, -0.500000, -0.419543),
            (0.784910, 0.500000, -0.419543),
            (0.831492, -0.500000, -0.344415),
            (0.831492, 0.500000, -0.344415),
            (0.822253, -0.500000, -0.340588),
            (0.822253, 0.500000, -0.340588),
            (0.861246, -0.500000, -0.261256),
            (0.861246, 0.500000, -0.261256),
            (0.851677, -0.500000, -0.258353),
            (0.851677, 0.500000, -0.258353),
            (0.882707, -0.500000, -0.175581),
            (0.882707, 0.500000, -0.175581),
            (0.872899, -0.500000, -0.173630),
            (0.872899, 0.500000, -0.173630),
            (0.895666, -0.500000, -0.088215),
            (0.895666, 0.500000, -0.088215),
            (0.885714, -0.500000, -0.087235),
            (0.885714, 0.500000, -0.087235)
        ]
        int[] faceVertexCounts = [4, 4, 4, 4, 4, 4, 4, 4, 4, 4, 4, 4, 4, 4, 4, 4, 4, 4, 4, 4, 4, 4, 4, 4, 4, 4, 4, 4, 4, 4, 4, 4, 4, 4, 4, 4, 4, 4, 4, 4, 4, 4, 4, 4, 4, 4, 4, 4, 4, 4, 4, 4, 4, 4, 4, 4, 4, 4, 4, 4, 4, 4, 4, 4, 4, 4, 4, 4, 4, 4, 4, 4, 4, 4, 4, 4, 4, 4, 4, 4, 4, 4, 4, 4, 4, 4, 4, 4, 4, 4, 4, 4, 4, 4, 4, 4, 4, 4, 4, 4, 4, 4, 4, 4, 4, 4, 4, 4, 4, 4, 4, 4, 4, 4, 4, 4, 4, 4, 4, 4, 4, 4, 4, 4, 4, 4, 4, 4, 4, 4, 4, 4, 4, 4, 4, 4, 4, 4, 4, 4, 4, 4, 4, 4, 4, 4, 4, 4, 4, 4, 4, 4, 4, 4, 4, 4, 4, 4, 4, 4, 4, 4, 4, 4, 4, 4, 4, 4, 4, 4, 4, 4, 4, 4, 4, 4, 4, 4, 4, 4, 4, 4, 4, 4, 4, 4, 4, 4, 4, 4, 4, 4, 4, 4, 4, 4, 4, 4, 4, 4, 4, 4, 4, 4, 4, 4, 4, 4, 4, 4, 4, 4, 4, 4, 4, 4, 4, 4, 4, 4, 4, 4, 4, 4, 4, 4, 4, 4, 4, 4, 4, 4, 4, 4, 4, 4, 4, 4, 4, 4, 4, 4, 4, 4, 4, 4, 4, 4, 4, 4, 4, 4, 4, 4, 4, 4]
        int[] faceVertexIndices = [0, 4, 5, 1, 2, 3, 7, 6, 1, 5, 7, 3, 0, 2, 6, 4, 4, 8, 9, 5, 6, 7, 11, 10, 5, 9, 11, 7, 4, 6, 10, 8, 8, 12, 13, 9, 10, 11, 15, 14, 9, 13, 15, 11, 8, 10, 14, 12, 12, 16, 17, 13, 14, 15, 19, 18, 13, 17, 19, 15, 12, 14, 18, 16, 16, 20, 21, 17, 18, 19, 23, 22, 17, 21, 23, 19, 16, 18, 22, 20, 20, 24, 25, 21, 22, 23, 27, 26, 21, 25, 27, 23, 20, 22, 26, 24, 24, 28, 29, 25, 26, 27, 31, 30, 25, 29, 31, 27, 24, 26, 30, 28, 28, 32, 33, 29, 30, 31, 35, 34, 29, 33, 35, 31, 28, 30, 34, 32, 32, 36, 37, 33, 34, 35, 39, 38, 33, 37, 39, 35, 32, 34, 38, 36, 36, 40, 41, 37, 38, 39, 43, 42, 37, 41, 43, 39, 36, 38, 42, 40, 40, 44, 45, 41, 42, 43, 47, 46, 41, 45, 47, 43, 40, 42, 46, 44, 44, 48, 49, 45, 46, 47, 51, 50, 45, 49, 51, 47, 44, 46, 50, 48, 48, 52, 53, 49, 50, 51, 55, 54, 49, 53, 55, 51, 48, 50, 54, 52, 52, 56, 57, 53, 54, 55, 59, 58, 53, 57, 59, 55, 52, 54, 58, 56, 56, 60, 61, 57, 58, 59, 63, 62, 57, 61, 63, 59, 56, 58, 62, 60, 60, 64, 65, 61, 62, 63, 67, 66, 61, 65, 67, 63, 60, 62, 66, 64, 64, 68, 69, 65, 66, 67, 71, 70, 65, 69, 71, 67, 64, 66, 70, 68, 68, 72, 73, 69, 70, 71, 75, 74, 69, 73, 75, 71, 68, 70, 74, 72, 72, 76, 77, 73, 74, 75, 79, 78, 73, 77, 79, 75, 72, 74, 78, 76, 76, 80, 81, 77, 78, 79, 83, 82, 77, 81, 83, 79, 76, 78, 82, 80, 80, 84, 85, 81, 82, 83, 87, 86, 81, 85, 87, 83, 80, 82, 86, 84, 84, 88, 89, 85, 86, 87, 91, 90, 85, 89, 91, 87, 84, 86, 90, 88, 88, 92, 93, 89, 90, 91, 95, 94, 89, 93, 95, 91, 88, 90, 94, 92, 92, 96, 97, 93, 94, 95, 99, 98, 93, 97, 99, 95, 92, 94, 98, 96, 96, 100, 101, 97, 98, 99, 103, 102, 97, 101, 103, 99, 96, 98, 102, 100, 100, 104, 105, 101, 102, 103, 107, 106, 101, 105, 107, 103, 100, 102, 106, 104, 104, 108, 109, 105, 106, 107, 111, 110, 105, 109, 111, 107, 104, 106, 110, 108, 108, 112, 113, 109, 110, 111, 115, 114, 109, 113, 115, 111, 108, 110, 114, 112, 112, 116, 117, 113, 114, 115, 119, 118, 113, 117, 119, 115, 112, 114, 118, 116, 116, 120, 121, 117, 118, 119, 123, 122, 117, 121, 123, 119, 116, 118, 122, 120, 120, 124, 125, 121, 122, 123, 127, 126, 121, 125, 127, 123, 120, 122, 126, 124, 124, 128, 129, 125, 126, 127, 131, 130, 125, 129, 131, 127, 124, 126, 130, 128, 128, 132, 133, 129, 130, 131, 135, 134, 129, 133, 135, 131, 128, 130, 134, 132, 132, 136, 137, 133, 134, 135, 139, 138, 133, 137, 139, 135, 132, 134, 138, 136, 136, 140, 141, 137, 138, 139, 143, 142, 137, 141, 143, 139, 136, 138, 142, 140, 140, 144, 145, 141, 142, 143, 147, 146, 141, 145, 147, 143, 140, 142, 146, 144, 144, 148, 149, 145, 146, 147, 151, 150, 145, 149, 151, 147, 144, 146, 150, 148, 148, 152, 153, 149, 150, 151, 155, 154, 149, 153, 155, 151, 148, 150, 154, 152, 152, 156, 157, 153, 154, 155, 159, 158, 153, 157, 159, 155, 152, 154, 158, 156, 156, 160, 161, 157, 158, 159, 163, 162, 157, 161, 163, 159, 156, 158, 162, 160, 160, 164, 165, 161, 162, 163, 167, 166, 161, 165, 167, 163, 160, 162, 166, 164, 164, 168, 169, 165, 166, 167, 171, 170, 165, 169, 171, 167, 164, 166, 170, 168, 168, 172, 173, 169, 170, 171, 175, 174, 169, 173, 175, 171, 168, 170, 174, 172, 172, 176, 177, 173, 174, 175, 179, 178, 173, 177, 179, 175, 172, 174, 178, 176, 176, 180, 181, 177, 178, 179, 183, 182, 177, 181, 183, 179, 176, 178, 182, 180, 180, 184, 185, 181, 182, 183, 187, 186, 181, 185, 187, 183, 180, 182, 186, 184, 184, 188, 189, 185, 186, 187, 191, 190, 185, 189, 191, 187, 184, 186, 190, 188, 188, 192, 193, 189, 190, 191, 195, 194, 189, 193, 195, 191, 188, 190, 194, 192, 192, 196, 197, 193, 194, 195, 199, 198, 193, 197, 199, 195, 192, 194, 198, 196, 196, 200, 201, 197, 198, 199, 203, 202, 197, 201, 203, 199, 196, 198, 202, 200, 200, 204, 205, 201, 202, 203, 207, 206, 201, 205, 207, 203, 200, 202, 206, 204, 204, 208, 209, 205, 206, 207, 211, 210, 205, 209, 211, 207, 204, 206, 210, 208, 208, 212, 213, 209, 210, 211, 215, 214, 209, 213, 215, 211, 208, 210, 214, 212, 212, 216, 217, 213, 214, 215, 219, 218, 213, 217, 219, 215, 212, 214, 218, 216, 216, 220, 221, 217, 218, 219, 223, 222, 217, 221, 223, 219, 216, 218, 222, 220, 220, 224, 225, 221, 222, 223, 227, 226, 221, 225, 227, 223, 220, 222, 226, 224, 224, 228, 229, 225, 226, 227, 231, 230, 225, 229, 231, 227, 224, 226, 230, 228, 228, 232, 233, 229, 230, 231, 235, 234, 229, 233, 235, 231, 228, 230, 234, 232, 232, 236, 237, 233, 234, 235, 239, 238, 233, 237, 239, 235, 232, 234, 238, 236, 236, 240, 241, 237, 238, 239, 243, 242, 237, 241, 243, 239, 236, 238, 242, 240, 240, 244, 245, 241, 242, 243, 247, 246, 241, 245, 247, 243, 240, 242, 246, 244, 244, 248, 249, 245, 246, 247, 251, 250, 245, 249, 251, 247, 244, 246, 250, 248, 248, 252, 253, 249, 250, 251, 255, 254, 249, 253, 255, 251, 248, 250, 254, 252, 252, 0, 1, 253, 254, 255, 3, 2, 253, 1, 3, 255, 252, 254, 2, 0]
        uniform token subdivisionScheme = "none"
        bool doubleSided = 0
        color3f[] primvars:displayColor = [(0.7200, 0.7400, 0.7800)]
        uniform token primvars:displayColor:interpolation = "constant"
        float3[] extent = [(-0.900000, -0.500000, -0.900000), (0.900000, 0.500000, 0.900000)]
    }
}
